<mxfile host="app.diagrams.net" modified="2020-11-23T13:19:09.066Z" agent="5.0 (Windows NT 10.0; Win64; x64) AppleWebKit/537.36 (KHTML, like Gecko) Chrome/86.0.4240.193 Safari/537.36" etag="_v4UViac7hcx_CLfrzhs" version="13.10.1" type="github">
  <diagram id="3TGv9SLEpQ3jlx2waGMd" name="Page-1">
    <mxGraphModel dx="82" dy="952" grid="0" gridSize="10" guides="1" tooltips="1" connect="1" arrows="1" fold="1" page="0" pageScale="1" pageWidth="827" pageHeight="1169" background="#5E824A" math="0" shadow="0">
      <root>
        <mxCell id="0" />
        <mxCell id="1" parent="0" />
        <mxCell id="PGzX83VYseBQMqCDSyQ2-3" value="FLÖDESDIAGRAM FÖR ATT KOKA EN KOPP TÉ" style="text;html=1;align=center;verticalAlign=middle;resizable=0;points=[];autosize=1;fontSize=13;fontFamily=Times New Roman;fontStyle=0;fillColor=#e3c800;strokeColor=#B09500;fontColor=#ffffff;" parent="1" vertex="1">
          <mxGeometry x="10" y="-871" width="291" height="20" as="geometry" />
        </mxCell>
        <mxCell id="PGzX83VYseBQMqCDSyQ2-13" style="edgeStyle=orthogonalEdgeStyle;rounded=0;orthogonalLoop=1;jettySize=auto;html=1;exitX=0.5;exitY=1;exitDx=0;exitDy=0;fontFamily=Times New Roman;fontSize=10;fontColor=#FCFCFC;" parent="1" source="PGzX83VYseBQMqCDSyQ2-4" edge="1">
          <mxGeometry relative="1" as="geometry">
            <mxPoint x="403" y="-790.6666564941406" as="targetPoint" />
          </mxGeometry>
        </mxCell>
        <mxCell id="PGzX83VYseBQMqCDSyQ2-4" value="KOKA EN KOPP TÉ" style="rounded=1;whiteSpace=wrap;html=1;fontFamily=Times New Roman;fontSize=13;fillColor=#e3c800;strokeColor=#B09500;fontColor=#FCFCFC;" parent="1" vertex="1">
          <mxGeometry x="328" y="-860" width="149" height="40" as="geometry" />
        </mxCell>
        <mxCell id="PGzX83VYseBQMqCDSyQ2-14" style="edgeStyle=orthogonalEdgeStyle;rounded=0;orthogonalLoop=1;jettySize=auto;html=1;exitX=1;exitY=0.5;exitDx=0;exitDy=0;fontFamily=Times New Roman;fontSize=10;fontColor=#FCFCFC;" parent="1" source="PGzX83VYseBQMqCDSyQ2-7" edge="1">
          <mxGeometry relative="1" as="geometry">
            <mxPoint x="517.3333740234375" y="-750" as="targetPoint" />
          </mxGeometry>
        </mxCell>
        <mxCell id="PGzX83VYseBQMqCDSyQ2-15" style="edgeStyle=orthogonalEdgeStyle;rounded=0;orthogonalLoop=1;jettySize=auto;html=1;exitX=0.5;exitY=1;exitDx=0;exitDy=0;fontFamily=Times New Roman;fontSize=10;fontColor=#FCFCFC;" parent="1" source="PGzX83VYseBQMqCDSyQ2-7" edge="1">
          <mxGeometry relative="1" as="geometry">
            <mxPoint x="403" y="-682.6666564941406" as="targetPoint" />
          </mxGeometry>
        </mxCell>
        <mxCell id="PGzX83VYseBQMqCDSyQ2-7" value="&lt;font style=&quot;font-size: 8px;&quot;&gt;HÄMTAT EN KASTRULL?&lt;/font&gt;" style="rhombus;whiteSpace=wrap;html=1;fontFamily=Times New Roman;fontSize=8;fontColor=#ffffff;fillColor=#e3c800;strokeColor=#B09500;align=center;fontStyle=0" parent="1" vertex="1">
          <mxGeometry x="321.5" y="-790" width="162" height="80" as="geometry" />
        </mxCell>
        <mxCell id="PGzX83VYseBQMqCDSyQ2-9" value="HÄMTA EN KASTRULL" style="rounded=1;whiteSpace=wrap;html=1;fontFamily=Times New Roman;fontSize=8;fontColor=#ffffff;fillColor=#e3c800;strokeColor=#B09500;" parent="1" vertex="1">
          <mxGeometry x="520" y="-783" width="120" height="60" as="geometry" />
        </mxCell>
        <mxCell id="PGzX83VYseBQMqCDSyQ2-10" value="&lt;b&gt;NEJ&lt;/b&gt;" style="text;html=1;align=center;verticalAlign=middle;resizable=0;points=[];autosize=1;fontSize=10;fontFamily=Times New Roman;fontColor=#FCFCFC;" parent="1" vertex="1">
          <mxGeometry x="477" y="-766" width="29" height="16" as="geometry" />
        </mxCell>
        <mxCell id="PGzX83VYseBQMqCDSyQ2-16" value="&lt;b&gt;JA&lt;/b&gt;" style="text;html=1;align=center;verticalAlign=middle;resizable=0;points=[];autosize=1;fontSize=10;fontFamily=Times New Roman;fontColor=#FCFCFC;" parent="1" vertex="1">
          <mxGeometry x="401" y="-707" width="22" height="16" as="geometry" />
        </mxCell>
        <mxCell id="PGzX83VYseBQMqCDSyQ2-19" style="edgeStyle=orthogonalEdgeStyle;rounded=0;orthogonalLoop=1;jettySize=auto;html=1;exitX=1;exitY=0.5;exitDx=0;exitDy=0;fontFamily=Times New Roman;fontSize=8;fontColor=#FCFCFC;" parent="1" source="PGzX83VYseBQMqCDSyQ2-18" edge="1">
          <mxGeometry relative="1" as="geometry">
            <mxPoint x="521.3333740234375" y="-641.9999847412109" as="targetPoint" />
          </mxGeometry>
        </mxCell>
        <mxCell id="PGzX83VYseBQMqCDSyQ2-22" style="edgeStyle=orthogonalEdgeStyle;rounded=0;orthogonalLoop=1;jettySize=auto;html=1;exitX=0.5;exitY=1;exitDx=0;exitDy=0;fontFamily=Times New Roman;fontSize=8;fontColor=#FCFCFC;" parent="1" source="PGzX83VYseBQMqCDSyQ2-18" edge="1">
          <mxGeometry relative="1" as="geometry">
            <mxPoint x="403" y="-575.9999847412109" as="targetPoint" />
          </mxGeometry>
        </mxCell>
        <mxCell id="PGzX83VYseBQMqCDSyQ2-18" value="&lt;font style=&quot;font-size: 8px&quot;&gt;FYLLT KASTRULLEN MED VATTEN?&lt;/font&gt;" style="rhombus;whiteSpace=wrap;html=1;fontFamily=Times New Roman;fontSize=10;fontColor=#ffffff;fillColor=#e3c800;strokeColor=#B09500;align=center;fontStyle=0" parent="1" vertex="1">
          <mxGeometry x="321.5" y="-682" width="162" height="80" as="geometry" />
        </mxCell>
        <mxCell id="PGzX83VYseBQMqCDSyQ2-20" value="FYLL KASTRULLEN" style="rounded=1;whiteSpace=wrap;html=1;fontFamily=Times New Roman;fontSize=8;fontColor=#ffffff;fillColor=#e3c800;strokeColor=#B09500;" parent="1" vertex="1">
          <mxGeometry x="523" y="-672" width="120" height="60" as="geometry" />
        </mxCell>
        <mxCell id="PGzX83VYseBQMqCDSyQ2-36" style="edgeStyle=orthogonalEdgeStyle;rounded=0;orthogonalLoop=1;jettySize=auto;html=1;exitX=0.5;exitY=1;exitDx=0;exitDy=0;fontFamily=Times New Roman;fontSize=8;fontColor=#FCFCFC;" parent="1" source="PGzX83VYseBQMqCDSyQ2-24" edge="1">
          <mxGeometry relative="1" as="geometry">
            <mxPoint x="402.66668701171875" y="-467.99998474121094" as="targetPoint" />
          </mxGeometry>
        </mxCell>
        <mxCell id="PGzX83VYseBQMqCDSyQ2-24" value="&lt;font style=&quot;font-size: 8px&quot;&gt;KOKAR VATTNET?&lt;/font&gt;" style="rhombus;whiteSpace=wrap;html=1;fontFamily=Times New Roman;fontSize=10;fontColor=#ffffff;fillColor=#e3c800;strokeColor=#B09500;align=center;fontStyle=0" parent="1" vertex="1">
          <mxGeometry x="321.5" y="-575" width="162" height="80" as="geometry" />
        </mxCell>
        <mxCell id="PGzX83VYseBQMqCDSyQ2-27" style="edgeStyle=orthogonalEdgeStyle;rounded=0;orthogonalLoop=1;jettySize=auto;html=1;exitX=1;exitY=0.5;exitDx=0;exitDy=0;fontFamily=Times New Roman;fontSize=8;fontColor=#FCFCFC;" parent="1" edge="1">
          <mxGeometry relative="1" as="geometry">
            <mxPoint x="523.0033740234375" y="-535.4999847412109" as="targetPoint" />
            <mxPoint x="485.17" y="-535.5" as="sourcePoint" />
          </mxGeometry>
        </mxCell>
        <mxCell id="PGzX83VYseBQMqCDSyQ2-29" value="STARTA IGÅNG SPISEN" style="rounded=1;whiteSpace=wrap;html=1;fontFamily=Times New Roman;fontSize=8;fontColor=#ffffff;fillColor=#e3c800;strokeColor=#B09500;" parent="1" vertex="1">
          <mxGeometry x="525" y="-565" width="120" height="60" as="geometry" />
        </mxCell>
        <mxCell id="PGzX83VYseBQMqCDSyQ2-33" value="&lt;b&gt;NEJ&lt;/b&gt;" style="text;html=1;align=center;verticalAlign=middle;resizable=0;points=[];autosize=1;fontSize=10;fontFamily=Times New Roman;fontColor=#FCFCFC;" parent="1" vertex="1">
          <mxGeometry x="477" y="-552" width="29" height="16" as="geometry" />
        </mxCell>
        <mxCell id="PGzX83VYseBQMqCDSyQ2-34" value="&lt;b&gt;NEJ&lt;/b&gt;" style="text;html=1;align=center;verticalAlign=middle;resizable=0;points=[];autosize=1;fontSize=10;fontFamily=Times New Roman;fontColor=#FCFCFC;" parent="1" vertex="1">
          <mxGeometry x="477" y="-658" width="29" height="16" as="geometry" />
        </mxCell>
        <mxCell id="PGzX83VYseBQMqCDSyQ2-35" value="&lt;b&gt;JA&lt;/b&gt;" style="text;html=1;align=center;verticalAlign=middle;resizable=0;points=[];autosize=1;fontSize=10;fontFamily=Times New Roman;fontColor=#FCFCFC;" parent="1" vertex="1">
          <mxGeometry x="404" y="-598" width="22" height="16" as="geometry" />
        </mxCell>
        <mxCell id="PGzX83VYseBQMqCDSyQ2-37" value="TA EN TÉMUGG" style="rounded=1;whiteSpace=wrap;html=1;fontFamily=Times New Roman;fontSize=8;fontColor=#ffffff;fillColor=#e3c800;strokeColor=#B09500;" parent="1" vertex="1">
          <mxGeometry x="523" y="-457" width="120" height="60" as="geometry" />
        </mxCell>
        <mxCell id="PGzX83VYseBQMqCDSyQ2-41" style="edgeStyle=orthogonalEdgeStyle;rounded=0;orthogonalLoop=1;jettySize=auto;html=1;exitX=0.5;exitY=1;exitDx=0;exitDy=0;fontFamily=Times New Roman;fontSize=8;fontColor=#FCFCFC;" parent="1" source="PGzX83VYseBQMqCDSyQ2-38" edge="1">
          <mxGeometry relative="1" as="geometry">
            <mxPoint x="402.66668701171875" y="-357.99998474121094" as="targetPoint" />
          </mxGeometry>
        </mxCell>
        <mxCell id="PGzX83VYseBQMqCDSyQ2-44" style="edgeStyle=orthogonalEdgeStyle;rounded=0;orthogonalLoop=1;jettySize=auto;html=1;exitX=1;exitY=0.5;exitDx=0;exitDy=0;fontFamily=Times New Roman;fontSize=8;fontColor=#FCFCFC;" parent="1" source="PGzX83VYseBQMqCDSyQ2-38" edge="1">
          <mxGeometry relative="1" as="geometry">
            <mxPoint x="520" y="-427.3333282470703" as="targetPoint" />
          </mxGeometry>
        </mxCell>
        <mxCell id="PGzX83VYseBQMqCDSyQ2-38" value="&lt;font style=&quot;font-size: 8px&quot;&gt;HÄMTAT MUGG?&lt;/font&gt;" style="rhombus;whiteSpace=wrap;html=1;fontFamily=Times New Roman;fontSize=10;fontColor=#ffffff;fillColor=#e3c800;strokeColor=#B09500;align=center;fontStyle=0" parent="1" vertex="1">
          <mxGeometry x="321.5" y="-467" width="162" height="80" as="geometry" />
        </mxCell>
        <mxCell id="PGzX83VYseBQMqCDSyQ2-45" style="edgeStyle=orthogonalEdgeStyle;rounded=0;orthogonalLoop=1;jettySize=auto;html=1;exitX=1;exitY=0.5;exitDx=0;exitDy=0;fontFamily=Times New Roman;fontSize=8;fontColor=#FCFCFC;" parent="1" source="PGzX83VYseBQMqCDSyQ2-39" edge="1">
          <mxGeometry relative="1" as="geometry">
            <mxPoint x="518.6666870117188" y="-318.3333282470703" as="targetPoint" />
          </mxGeometry>
        </mxCell>
        <mxCell id="PGzX83VYseBQMqCDSyQ2-53" style="edgeStyle=orthogonalEdgeStyle;rounded=0;orthogonalLoop=1;jettySize=auto;html=1;exitX=0.5;exitY=1;exitDx=0;exitDy=0;fontFamily=Times New Roman;fontSize=8;fontColor=#FCFCFC;" parent="1" source="PGzX83VYseBQMqCDSyQ2-39" edge="1">
          <mxGeometry relative="1" as="geometry">
            <mxPoint x="403" y="-252.00001525878906" as="targetPoint" />
          </mxGeometry>
        </mxCell>
        <mxCell id="PGzX83VYseBQMqCDSyQ2-39" value="&lt;font style=&quot;font-size: 8px&quot;&gt;HÄMTAT TÉPÅSE?&lt;/font&gt;" style="rhombus;whiteSpace=wrap;html=1;fontFamily=Times New Roman;fontSize=10;fontColor=#ffffff;fillColor=#e3c800;strokeColor=#B09500;align=center;fontStyle=0" parent="1" vertex="1">
          <mxGeometry x="321.5" y="-358" width="162" height="80" as="geometry" />
        </mxCell>
        <mxCell id="PGzX83VYseBQMqCDSyQ2-42" value="TA EN TÉPÅSE" style="rounded=1;whiteSpace=wrap;html=1;fontFamily=Times New Roman;fontSize=8;fontColor=#ffffff;fillColor=#e3c800;strokeColor=#B09500;" parent="1" vertex="1">
          <mxGeometry x="520" y="-348" width="120" height="60" as="geometry" />
        </mxCell>
        <mxCell id="PGzX83VYseBQMqCDSyQ2-46" value="&lt;b&gt;NEJ&lt;/b&gt;" style="text;html=1;align=center;verticalAlign=middle;resizable=0;points=[];autosize=1;fontSize=10;fontFamily=Times New Roman;fontColor=#FCFCFC;" parent="1" vertex="1">
          <mxGeometry x="477" y="-443" width="29" height="16" as="geometry" />
        </mxCell>
        <mxCell id="PGzX83VYseBQMqCDSyQ2-47" value="&lt;b&gt;JA&lt;/b&gt;" style="text;html=1;align=center;verticalAlign=middle;resizable=0;points=[];autosize=1;fontSize=10;fontFamily=Times New Roman;fontColor=#FCFCFC;" parent="1" vertex="1">
          <mxGeometry x="404" y="-492" width="22" height="16" as="geometry" />
        </mxCell>
        <mxCell id="PGzX83VYseBQMqCDSyQ2-48" value="&lt;b&gt;JA&lt;/b&gt;" style="text;html=1;align=center;verticalAlign=middle;resizable=0;points=[];autosize=1;fontSize=10;fontFamily=Times New Roman;fontColor=#FCFCFC;" parent="1" vertex="1">
          <mxGeometry x="404" y="-385" width="22" height="16" as="geometry" />
        </mxCell>
        <mxCell id="PGzX83VYseBQMqCDSyQ2-49" value="&lt;b&gt;NEJ&lt;/b&gt;" style="text;html=1;align=center;verticalAlign=middle;resizable=0;points=[];autosize=1;fontSize=10;fontFamily=Times New Roman;fontColor=#FCFCFC;" parent="1" vertex="1">
          <mxGeometry x="474" y="-335" width="29" height="16" as="geometry" />
        </mxCell>
        <mxCell id="PGzX83VYseBQMqCDSyQ2-56" style="edgeStyle=orthogonalEdgeStyle;rounded=0;orthogonalLoop=1;jettySize=auto;html=1;exitX=1;exitY=0.5;exitDx=0;exitDy=0;fontFamily=Times New Roman;fontSize=8;fontColor=#FCFCFC;" parent="1" source="PGzX83VYseBQMqCDSyQ2-50" edge="1">
          <mxGeometry relative="1" as="geometry">
            <mxPoint x="518.6666870117188" y="-211.3333282470703" as="targetPoint" />
          </mxGeometry>
        </mxCell>
        <mxCell id="PGzX83VYseBQMqCDSyQ2-58" style="edgeStyle=orthogonalEdgeStyle;rounded=0;orthogonalLoop=1;jettySize=auto;html=1;exitX=0.5;exitY=1;exitDx=0;exitDy=0;fontFamily=Times New Roman;fontSize=8;fontColor=#FCFCFC;" parent="1" source="PGzX83VYseBQMqCDSyQ2-50" edge="1">
          <mxGeometry relative="1" as="geometry">
            <mxPoint x="403" y="-144.6666717529297" as="targetPoint" />
          </mxGeometry>
        </mxCell>
        <mxCell id="PGzX83VYseBQMqCDSyQ2-50" value="&lt;font style=&quot;font-size: 8px&quot;&gt;LAGT TÉPÅSE I MUGGEN?&lt;/font&gt;" style="rhombus;whiteSpace=wrap;html=1;fontFamily=Times New Roman;fontSize=10;fontColor=#ffffff;fillColor=#e3c800;strokeColor=#B09500;align=center;fontStyle=0" parent="1" vertex="1">
          <mxGeometry x="321.5" y="-251" width="162" height="80" as="geometry" />
        </mxCell>
        <mxCell id="PGzX83VYseBQMqCDSyQ2-54" value="&lt;b&gt;JA&lt;/b&gt;" style="text;html=1;align=center;verticalAlign=middle;resizable=0;points=[];autosize=1;fontSize=10;fontFamily=Times New Roman;fontColor=#FCFCFC;" parent="1" vertex="1">
          <mxGeometry x="404" y="-278" width="22" height="16" as="geometry" />
        </mxCell>
        <mxCell id="PGzX83VYseBQMqCDSyQ2-62" style="edgeStyle=orthogonalEdgeStyle;rounded=0;orthogonalLoop=1;jettySize=auto;html=1;exitX=1;exitY=0.5;exitDx=0;exitDy=0;fontFamily=Times New Roman;fontSize=8;fontColor=#FCFCFC;" parent="1" source="PGzX83VYseBQMqCDSyQ2-55" edge="1">
          <mxGeometry relative="1" as="geometry">
            <mxPoint x="518.6666870117188" y="-104.33329772949219" as="targetPoint" />
          </mxGeometry>
        </mxCell>
        <mxCell id="PGzX83VYseBQMqCDSyQ2-66" style="edgeStyle=orthogonalEdgeStyle;rounded=0;orthogonalLoop=1;jettySize=auto;html=1;exitX=0.5;exitY=1;exitDx=0;exitDy=0;fontFamily=Times New Roman;fontSize=8;fontColor=#FCFCFC;" parent="1" source="PGzX83VYseBQMqCDSyQ2-55" edge="1">
          <mxGeometry relative="1" as="geometry">
            <mxPoint x="403" y="-37.99992370605469" as="targetPoint" />
          </mxGeometry>
        </mxCell>
        <mxCell id="PGzX83VYseBQMqCDSyQ2-55" value="&lt;font style=&quot;font-size: 8px&quot;&gt;HÄLLT I VATTEN I MUGGEN?&lt;/font&gt;" style="rhombus;whiteSpace=wrap;html=1;fontFamily=Times New Roman;fontSize=10;fontColor=#ffffff;fillColor=#e3c800;strokeColor=#B09500;align=center;fontStyle=0" parent="1" vertex="1">
          <mxGeometry x="321.5" y="-144" width="162" height="80" as="geometry" />
        </mxCell>
        <mxCell id="PGzX83VYseBQMqCDSyQ2-57" value="LÄGG TÉPÅSE I MUGGEN" style="rounded=1;whiteSpace=wrap;html=1;fontFamily=Times New Roman;fontSize=8;fontColor=#ffffff;fillColor=#e3c800;strokeColor=#B09500;" parent="1" vertex="1">
          <mxGeometry x="520" y="-241" width="120" height="60" as="geometry" />
        </mxCell>
        <mxCell id="PGzX83VYseBQMqCDSyQ2-59" value="&lt;b&gt;NEJ&lt;/b&gt;" style="text;html=1;align=center;verticalAlign=middle;resizable=0;points=[];autosize=1;fontSize=10;fontFamily=Times New Roman;fontColor=#FCFCFC;" parent="1" vertex="1">
          <mxGeometry x="474" y="-227" width="29" height="16" as="geometry" />
        </mxCell>
        <mxCell id="PGzX83VYseBQMqCDSyQ2-60" value="&lt;b&gt;JA&lt;/b&gt;" style="text;html=1;align=center;verticalAlign=middle;resizable=0;points=[];autosize=1;fontSize=10;fontFamily=Times New Roman;fontColor=#FCFCFC;" parent="1" vertex="1">
          <mxGeometry x="404" y="-168" width="22" height="16" as="geometry" />
        </mxCell>
        <mxCell id="PGzX83VYseBQMqCDSyQ2-63" value="HÄLL VATTEN I MUGGEN" style="rounded=1;whiteSpace=wrap;html=1;fontFamily=Times New Roman;fontSize=8;fontColor=#ffffff;fillColor=#e3c800;strokeColor=#B09500;" parent="1" vertex="1">
          <mxGeometry x="520" y="-136" width="120" height="60" as="geometry" />
        </mxCell>
        <mxCell id="PGzX83VYseBQMqCDSyQ2-70" style="edgeStyle=orthogonalEdgeStyle;rounded=0;orthogonalLoop=1;jettySize=auto;html=1;exitX=1;exitY=0.5;exitDx=0;exitDy=0;fontFamily=Times New Roman;fontSize=8;fontColor=#FCFCFC;" parent="1" source="PGzX83VYseBQMqCDSyQ2-67" edge="1">
          <mxGeometry relative="1" as="geometry">
            <mxPoint x="519.3333129882812" y="2.6667327880859375" as="targetPoint" />
          </mxGeometry>
        </mxCell>
        <mxCell id="PGzX83VYseBQMqCDSyQ2-73" style="edgeStyle=orthogonalEdgeStyle;rounded=0;orthogonalLoop=1;jettySize=auto;html=1;exitX=0.5;exitY=1;exitDx=0;exitDy=0;fontFamily=Times New Roman;fontSize=8;fontColor=#FCFCFC;" parent="1" source="PGzX83VYseBQMqCDSyQ2-67" edge="1">
          <mxGeometry relative="1" as="geometry">
            <mxPoint x="402.6666259765625" y="68.66673278808594" as="targetPoint" />
          </mxGeometry>
        </mxCell>
        <mxCell id="PGzX83VYseBQMqCDSyQ2-67" value="&lt;span style=&quot;font-size: 8px&quot;&gt;LÅTIT TÉPÅSEN VILA EN STUND I VATTNET?&lt;/span&gt;" style="rhombus;whiteSpace=wrap;html=1;fontFamily=Times New Roman;fontSize=10;fontColor=#ffffff;fillColor=#e3c800;strokeColor=#B09500;align=center;fontStyle=0" parent="1" vertex="1">
          <mxGeometry x="321.5" y="-37" width="162" height="80" as="geometry" />
        </mxCell>
        <mxCell id="PGzX83VYseBQMqCDSyQ2-68" value="&lt;b&gt;JA&lt;/b&gt;" style="text;html=1;align=center;verticalAlign=middle;resizable=0;points=[];autosize=1;fontSize=10;fontFamily=Times New Roman;fontColor=#FCFCFC;" parent="1" vertex="1">
          <mxGeometry x="404" y="-64" width="22" height="16" as="geometry" />
        </mxCell>
        <mxCell id="PGzX83VYseBQMqCDSyQ2-69" value="&lt;b&gt;NEJ&lt;/b&gt;" style="text;html=1;align=center;verticalAlign=middle;resizable=0;points=[];autosize=1;fontSize=10;fontFamily=Times New Roman;fontColor=#FCFCFC;" parent="1" vertex="1">
          <mxGeometry x="474" y="-119" width="29" height="16" as="geometry" />
        </mxCell>
        <mxCell id="PGzX83VYseBQMqCDSyQ2-71" value="LÅT DEN VILA OCH SPRIDA SIN SMAK I VATTNET" style="rounded=1;whiteSpace=wrap;html=1;fontFamily=Times New Roman;fontSize=8;fontColor=#ffffff;fillColor=#e3c800;strokeColor=#B09500;" parent="1" vertex="1">
          <mxGeometry x="520" y="-27" width="120" height="60" as="geometry" />
        </mxCell>
        <mxCell id="PGzX83VYseBQMqCDSyQ2-74" style="edgeStyle=orthogonalEdgeStyle;rounded=0;orthogonalLoop=1;jettySize=auto;html=1;exitX=1;exitY=0.5;exitDx=0;exitDy=0;fontFamily=Times New Roman;fontSize=8;fontColor=#FCFCFC;" parent="1" source="PGzX83VYseBQMqCDSyQ2-72" edge="1">
          <mxGeometry relative="1" as="geometry">
            <mxPoint x="516.6666259765625" y="110.00004577636719" as="targetPoint" />
          </mxGeometry>
        </mxCell>
        <mxCell id="PGzX83VYseBQMqCDSyQ2-83" style="edgeStyle=orthogonalEdgeStyle;rounded=0;orthogonalLoop=1;jettySize=auto;html=1;exitX=0.5;exitY=1;exitDx=0;exitDy=0;fontFamily=Times New Roman;fontSize=8;fontColor=#FCFCFC;" parent="1" source="PGzX83VYseBQMqCDSyQ2-72" edge="1">
          <mxGeometry relative="1" as="geometry">
            <mxPoint x="402.33331298828125" y="188.0000762939453" as="targetPoint" />
          </mxGeometry>
        </mxCell>
        <mxCell id="PGzX83VYseBQMqCDSyQ2-72" value="&lt;span style=&quot;font-size: 8px&quot;&gt;TAGIT BORT TÉPÅSEN FRÅN &lt;br&gt;MUGGEN?&lt;/span&gt;" style="rhombus;whiteSpace=wrap;html=1;fontFamily=Times New Roman;fontSize=10;fontColor=#ffffff;fillColor=#e3c800;strokeColor=#B09500;align=center;fontStyle=0" parent="1" vertex="1">
          <mxGeometry x="321.5" y="70" width="162" height="80" as="geometry" />
        </mxCell>
        <mxCell id="PGzX83VYseBQMqCDSyQ2-75" value="LÅT DEN VILA OCH SPRIDA SIN SMAK I VATTNET" style="rounded=1;whiteSpace=wrap;html=1;fontFamily=Times New Roman;fontSize=8;fontColor=#ffffff;fillColor=#e3c800;strokeColor=#B09500;" parent="1" vertex="1">
          <mxGeometry x="518" y="80" width="120" height="60" as="geometry" />
        </mxCell>
        <mxCell id="PGzX83VYseBQMqCDSyQ2-76" value="&lt;b&gt;NEJ&lt;/b&gt;" style="text;html=1;align=center;verticalAlign=middle;resizable=0;points=[];autosize=1;fontSize=10;fontFamily=Times New Roman;fontColor=#FCFCFC;" parent="1" vertex="1">
          <mxGeometry x="477" y="-13" width="29" height="16" as="geometry" />
        </mxCell>
        <mxCell id="PGzX83VYseBQMqCDSyQ2-77" value="&lt;b&gt;NEJ&lt;/b&gt;" style="text;html=1;align=center;verticalAlign=middle;resizable=0;points=[];autosize=1;fontSize=10;fontFamily=Times New Roman;fontColor=#FCFCFC;" parent="1" vertex="1">
          <mxGeometry x="473" y="91" width="29" height="16" as="geometry" />
        </mxCell>
        <mxCell id="PGzX83VYseBQMqCDSyQ2-78" value="&lt;b&gt;JA&lt;/b&gt;" style="text;html=1;align=center;verticalAlign=middle;resizable=0;points=[];autosize=1;fontSize=10;fontFamily=Times New Roman;fontColor=#FCFCFC;" parent="1" vertex="1">
          <mxGeometry x="404" y="43" width="22" height="16" as="geometry" />
        </mxCell>
        <mxCell id="PGzX83VYseBQMqCDSyQ2-81" value="LÅT DET GODA TÉ SMAKA" style="rounded=1;whiteSpace=wrap;html=1;fontFamily=Times New Roman;fontSize=13;fillColor=#e3c800;strokeColor=#B09500;fontColor=#FCFCFC;" parent="1" vertex="1">
          <mxGeometry x="328" y="189" width="149" height="57" as="geometry" />
        </mxCell>
        <mxCell id="PGzX83VYseBQMqCDSyQ2-84" value="&lt;b&gt;JA&lt;/b&gt;" style="text;html=1;align=center;verticalAlign=middle;resizable=0;points=[];autosize=1;fontSize=10;fontFamily=Times New Roman;fontColor=#FCFCFC;" parent="1" vertex="1">
          <mxGeometry x="404" y="158" width="22" height="16" as="geometry" />
        </mxCell>
      </root>
    </mxGraphModel>
  </diagram>
</mxfile>
